<svg version="1.1" id="Layer_1" xmlns="http://www.w3.org/2000/svg" xmlns:xlink="http://www.w3.org/1999/xlink" x="0px" y="0px"
	 width="100%" viewBox="0 0 864 1184" enable-background="new 0 0 864 1184" xml:space="preserve">
<path fill="#FDFEFE" opacity="1.000000" stroke="none" 
	d="
M388.000000,1185.000000 
	C258.666656,1185.000000 129.833328,1185.000000 1.000000,1185.000000 
	C1.000000,790.333313 1.000000,395.666656 1.000000,1.000000 
	C289.000000,1.000000 577.000000,1.000000 865.000000,1.000000 
	C865.000000,395.666656 865.000000,790.333313 865.000000,1185.000000 
	C706.166687,1185.000000 547.333313,1185.000000 388.000000,1185.000000 
M382.201324,705.499268 
	C382.260132,710.331360 382.093079,715.180054 382.445068,719.990662 
	C382.759277,724.284729 381.001038,725.328430 376.959473,725.306335 
	C348.298981,725.149841 319.636749,725.287231 290.976685,725.094177 
	C286.518341,725.064148 284.896088,726.078979 284.938416,730.883240 
	C285.184998,758.875977 285.089539,786.871643 285.139648,814.866333 
	C285.143127,816.809082 285.389404,818.751465 285.553741,821.145203 
	C287.843323,821.145203 289.649109,821.146362 291.454895,821.145020 
	C319.616272,821.123718 347.778259,821.186462 375.938477,820.995056 
	C380.472839,820.964294 382.251801,821.769897 382.243683,826.955505 
	C382.112610,910.606140 382.253937,994.257080 382.183075,1077.907837 
	C382.179108,1082.556396 383.218353,1084.208008 388.221680,1084.166382 
	C416.214355,1083.933472 444.210632,1083.991211 472.204285,1084.171265 
	C476.592316,1084.199463 478.237183,1083.264648 478.226776,1078.429932 
	C478.046753,994.779297 478.103485,911.128174 477.919403,827.477600 
	C477.908478,822.512146 478.996002,820.957703 484.217590,820.970764 
	C557.203491,821.152832 630.189941,821.068970 703.176086,821.185608 
	C707.528503,821.192566 709.224915,820.343872 709.220093,815.471863 
	C709.077332,670.999207 709.074707,526.526367 709.175415,382.053650 
	C709.178589,377.534149 707.681274,376.462677 703.411011,376.469208 
	C598.430969,376.629852 493.450653,376.704376 388.470551,376.624908 
	C383.419952,376.621094 382.023102,377.967316 382.030945,383.060120 
	C382.195526,490.206451 382.177460,597.353088 382.201324,705.499268 
M256.922546,528.500000 
	C256.913849,511.838226 257.060822,495.173981 256.794281,478.516357 
	C256.721649,473.976562 258.228394,472.971039 262.526489,472.991486 
	C290.687531,473.125763 318.850311,472.899353 347.011414,473.029755 
	C351.418884,473.050171 353.087341,472.144989 353.047882,467.300995 
	C352.817139,438.974182 352.816254,410.643585 353.050293,382.316833 
	C353.090332,377.471344 351.442627,376.517059 347.012787,376.549683 
	C318.685944,376.758606 290.356903,376.659607 262.029327,376.804993 
	C258.270782,376.824280 256.730896,375.897278 256.768372,371.769653 
	C256.962036,350.441559 256.944672,329.110352 256.799225,307.781555 
	C256.773956,304.076843 257.862976,302.861328 261.615906,302.915100 
	C274.444305,303.099121 287.277252,302.952301 300.108490,302.951202 
	C434.920166,302.939606 569.731873,302.907684 704.543457,303.022400 
	C709.306580,303.026459 710.760193,301.850189 710.706482,296.944153 
	C710.398254,268.784882 710.336304,240.621231 710.468445,212.460373 
	C710.491394,207.560547 708.901672,206.266663 704.152527,206.292526 
	C668.659302,206.485718 633.164734,206.436813 597.670593,206.444077 
	C454.360504,206.473389 311.050415,206.493835 167.740341,206.526154 
	C161.092575,206.527649 161.101074,206.566269 161.099625,213.087479 
	C161.070297,345.232574 161.032257,477.377686 161.010620,609.522766 
	C160.999435,677.844971 161.039734,746.167236 160.967117,814.489380 
	C160.962448,818.880249 161.321381,821.397400 167.009567,821.332397 
	C195.001434,821.012390 222.999466,821.088135 250.993729,821.270203 
	C255.496719,821.299438 256.953217,820.155518 256.947876,815.453125 
	C256.839630,720.135559 256.897614,624.817749 256.922546,528.500000 
z"/>
<path fill="#131212" opacity="1.000000" stroke="none" 
	d="
M382.198273,704.999451 
	C382.177460,597.353088 382.195526,490.206451 382.030945,383.060120 
	C382.023102,377.967316 383.419952,376.621094 388.470551,376.624908 
	C493.450653,376.704376 598.430969,376.629852 703.411011,376.469208 
	C707.681274,376.462677 709.178589,377.534149 709.175415,382.053650 
	C709.074707,526.526367 709.077332,670.999207 709.220093,815.471863 
	C709.224915,820.343872 707.528503,821.192566 703.176086,821.185608 
	C630.189941,821.068970 557.203491,821.152832 484.217590,820.970764 
	C478.996002,820.957703 477.908478,822.512146 477.919403,827.477600 
	C478.103485,911.128174 478.046753,994.779297 478.226776,1078.429932 
	C478.237183,1083.264648 476.592316,1084.199463 472.204285,1084.171265 
	C444.210632,1083.991211 416.214355,1083.933472 388.221680,1084.166382 
	C383.218353,1084.208008 382.179108,1082.556396 382.183075,1077.907837 
	C382.253937,994.257080 382.112610,910.606140 382.243683,826.955505 
	C382.251801,821.769897 380.472839,820.964294 375.938477,820.995056 
	C347.778259,821.186462 319.616272,821.123718 291.454895,821.145020 
	C289.649109,821.146362 287.843323,821.145203 285.553741,821.145203 
	C285.389404,818.751465 285.143127,816.809082 285.139648,814.866333 
	C285.089539,786.871643 285.184998,758.875977 284.938416,730.883240 
	C284.896088,726.078979 286.518341,725.064148 290.976685,725.094177 
	C319.636749,725.287231 348.298981,725.149841 376.959473,725.306335 
	C381.001038,725.328430 382.759277,724.284729 382.445068,719.990662 
	C382.093079,715.180054 382.260132,710.331360 382.198273,704.999451 
M613.155701,513.500000 
	C613.152283,502.167084 613.145447,490.834167 613.146667,479.501251 
	C613.147400,472.930328 613.153259,472.931305 606.635742,472.932922 
	C565.971558,472.943024 525.307434,472.960968 484.643250,472.953827 
	C478.125977,472.952698 478.122589,472.900452 478.121674,479.531708 
	C478.110382,559.526855 478.133545,639.522034 477.999786,719.516968 
	C477.992462,723.909607 479.233917,725.247925 483.636841,725.231995 
	C524.967224,725.082458 566.298462,725.067200 607.628784,725.213257 
	C612.100586,725.229065 613.218567,723.829285 613.211243,719.487610 
	C613.095459,651.158569 613.145081,582.829224 613.155701,513.500000 
z"/>
<path fill="#131212" opacity="1.000000" stroke="none" 
	d="
M256.922424,529.000000 
	C256.897614,624.817749 256.839630,720.135559 256.947876,815.453125 
	C256.953217,820.155518 255.496719,821.299438 250.993729,821.270203 
	C222.999466,821.088135 195.001434,821.012390 167.009567,821.332397 
	C161.321381,821.397400 160.962448,818.880249 160.967117,814.489380 
	C161.039734,746.167236 160.999435,677.844971 161.010620,609.522766 
	C161.032257,477.377686 161.070297,345.232574 161.099625,213.087479 
	C161.101074,206.566269 161.092575,206.527649 167.740341,206.526154 
	C311.050415,206.493835 454.360504,206.473389 597.670593,206.444077 
	C633.164734,206.436813 668.659302,206.485718 704.152527,206.292526 
	C708.901672,206.266663 710.491394,207.560547 710.468445,212.460373 
	C710.336304,240.621231 710.398254,268.784882 710.706482,296.944153 
	C710.760193,301.850189 709.306580,303.026459 704.543457,303.022400 
	C569.731873,302.907684 434.920166,302.939606 300.108490,302.951202 
	C287.277252,302.952301 274.444305,303.099121 261.615906,302.915100 
	C257.862976,302.861328 256.773956,304.076843 256.799225,307.781555 
	C256.944672,329.110352 256.962036,350.441559 256.768372,371.769653 
	C256.730896,375.897278 258.270782,376.824280 262.029327,376.804993 
	C290.356903,376.659607 318.685944,376.758606 347.012787,376.549683 
	C351.442627,376.517059 353.090332,377.471344 353.050293,382.316833 
	C352.816254,410.643585 352.817139,438.974182 353.047882,467.300995 
	C353.087341,472.144989 351.418884,473.050171 347.011414,473.029755 
	C318.850311,472.899353 290.687531,473.125763 262.526489,472.991486 
	C258.228394,472.971039 256.721649,473.976562 256.794281,478.516357 
	C257.060822,495.173981 256.913849,511.838226 256.922424,529.000000 
z"/>
<path fill="#FCFCFC" opacity="1.000000" stroke="none" 
	d="
M613.156189,514.000000 
	C613.145081,582.829224 613.095459,651.158569 613.211243,719.487610 
	C613.218567,723.829285 612.100586,725.229065 607.628784,725.213257 
	C566.298462,725.067200 524.967224,725.082458 483.636841,725.231995 
	C479.233917,725.247925 477.992462,723.909607 477.999786,719.516968 
	C478.133545,639.522034 478.110382,559.526855 478.121674,479.531708 
	C478.122589,472.900452 478.125977,472.952698 484.643250,472.953827 
	C525.307434,472.960968 565.971558,472.943024 606.635742,472.932922 
	C613.153259,472.931305 613.147400,472.930328 613.146667,479.501251 
	C613.145447,490.834167 613.152283,502.167084 613.156189,514.000000 
z"/>
</svg>